<svg width="31" height="30" viewBox="0 0 31 30" fill="none" xmlns="http://www.w3.org/2000/svg">
<path d="M10.85 4.73684C10.85 3.48055 11.3399 2.27572 12.212 1.38739C13.084 0.499059 14.2667 0 15.5 0C16.7333 0 17.916 0.499059 18.788 1.38739C19.6601 2.27572 20.15 3.48055 20.15 4.73684C20.15 5.99313 19.6601 7.19797 18.788 8.0863C17.916 8.97463 16.7333 9.47368 15.5 9.47368C14.2667 9.47368 13.084 8.97463 12.212 8.0863C11.3399 7.19797 10.85 5.99313 10.85 4.73684ZM25.575 1.57895C24.5473 1.57895 23.5617 1.99483 22.835 2.7351C22.1083 3.47538 21.7 4.47941 21.7 5.52632C21.7 6.57322 22.1083 7.57725 22.835 8.31753C23.5617 9.0578 24.5473 9.47368 25.575 9.47368C26.6027 9.47368 27.5883 9.0578 28.315 8.31753C29.0417 7.57725 29.45 6.57322 29.45 5.52632C29.45 4.47941 29.0417 3.47538 28.315 2.7351C27.5883 1.99483 26.6027 1.57895 25.575 1.57895ZM5.425 1.57895C4.39729 1.57895 3.41166 1.99483 2.68496 2.7351C1.95826 3.47538 1.55 4.47941 1.55 5.52632C1.55 6.57322 1.95826 7.57725 2.68496 8.31753C3.41166 9.0578 4.39729 9.47368 5.425 9.47368C6.45271 9.47368 7.43833 9.0578 8.16504 8.31753C8.89174 7.57725 9.3 6.57322 9.3 5.52632C9.3 4.47941 8.89174 3.47538 8.16504 2.7351C7.43833 1.99483 6.45271 1.57895 5.425 1.57895ZM11.8187 11.0526C10.9452 11.0526 10.1074 11.4061 9.48972 12.0354C8.87202 12.6646 8.525 13.518 8.525 14.4079V22.8947C8.525 24.7792 9.25986 26.5864 10.5679 27.9189C11.876 29.2514 13.6501 30 15.5 30C17.3499 30 19.124 29.2514 20.4321 27.9189C21.7401 26.5864 22.475 24.7792 22.475 22.8947V14.4079C22.475 13.518 22.128 12.6646 21.5103 12.0354C20.8926 11.4061 20.0548 11.0526 19.1812 11.0526H11.8187ZM6.975 14.4079C6.975 13.1447 7.44155 11.9913 8.20802 11.1182C7.99343 11.0744 7.7751 11.0525 7.55625 11.0526H3.29375C2.42019 11.0526 1.58242 11.4061 0.964717 12.0354C0.347019 12.6646 2.07027e-07 13.518 2.07027e-07 14.4079V22.1053C-0.000258582 23.0596 0.242106 23.9978 0.703491 24.8284C1.16488 25.659 1.82955 26.3537 2.6328 26.8449C3.43604 27.3361 4.35047 27.607 5.28703 27.6313C6.22358 27.6556 7.15035 27.4324 7.97708 26.9834C7.3171 25.7256 6.97284 24.321 6.975 22.8947V14.4079ZM24.025 22.8947C24.025 24.3726 23.6623 25.7645 23.0229 26.9834C23.8496 27.4324 24.7764 27.6556 25.713 27.6313C26.6495 27.607 27.564 27.3361 28.3672 26.8449C29.1704 26.3537 29.8351 25.659 30.2965 24.8284C30.7579 23.9978 31.0003 23.0596 31 22.1053V14.4079C31 13.518 30.653 12.6646 30.0353 12.0354C29.4176 11.4061 28.5798 11.0526 27.7062 11.0526H23.4437C23.2205 11.0526 23.002 11.0755 22.7912 11.1182C23.5872 12.0219 24.0266 13.1937 24.025 14.4079V22.8947Z" fill="white"/>
</svg>
