<svg width="32" height="29" viewBox="0 0 32 29" fill="none" xmlns="http://www.w3.org/2000/svg">
<path d="M16 0C16.7715 0 17.5115 0.305535 18.057 0.84939C18.6026 1.39325 18.9091 2.13087 18.9091 2.9C18.9091 3.973 18.3273 4.9155 17.4545 5.4085V7.25H18.9091C21.6095 7.25 24.1993 8.31937 26.1087 10.2229C28.0182 12.1264 29.0909 14.7081 29.0909 17.4H30.5455C30.9312 17.4 31.3012 17.5528 31.574 17.8247C31.8468 18.0966 32 18.4654 32 18.85V23.2C32 23.5846 31.8468 23.9534 31.574 24.2253C31.3012 24.4972 30.9312 24.65 30.5455 24.65H29.0909V26.1C29.0909 26.8691 28.7844 27.6068 28.2389 28.1506C27.6933 28.6945 26.9534 29 26.1818 29H5.81818C5.04664 29 4.3067 28.6945 3.76114 28.1506C3.21558 27.6068 2.90909 26.8691 2.90909 26.1V24.65H1.45455C1.06878 24.65 0.698807 24.4972 0.426026 24.2253C0.153246 23.9534 0 23.5846 0 23.2V18.85C0 18.4654 0.153246 18.0966 0.426026 17.8247C0.698807 17.5528 1.06878 17.4 1.45455 17.4H2.90909C2.90909 14.7081 3.98182 12.1264 5.89128 10.2229C7.80074 8.31937 10.3905 7.25 13.0909 7.25H14.5455V5.4085C13.6727 4.9155 13.0909 3.973 13.0909 2.9C13.0909 2.13087 13.3974 1.39325 13.943 0.84939C14.4885 0.305535 15.2285 0 16 0ZM9.45455 15.95C8.49012 15.95 7.5652 16.3319 6.88325 17.0117C6.2013 17.6916 5.81818 18.6136 5.81818 19.575C5.81818 20.5364 6.2013 21.4584 6.88325 22.1383C7.5652 22.8181 8.49012 23.2 9.45455 23.2C10.419 23.2 11.3439 22.8181 12.0258 22.1383C12.7078 21.4584 13.0909 20.5364 13.0909 19.575C13.0909 18.6136 12.7078 17.6916 12.0258 17.0117C11.3439 16.3319 10.419 15.95 9.45455 15.95ZM22.5455 15.95C21.581 15.95 20.6561 16.3319 19.9742 17.0117C19.2922 17.6916 18.9091 18.6136 18.9091 19.575C18.9091 20.5364 19.2922 21.4584 19.9742 22.1383C20.6561 22.8181 21.581 23.2 22.5455 23.2C23.5099 23.2 24.4348 22.8181 25.1168 22.1383C25.7987 21.4584 26.1818 20.5364 26.1818 19.575C26.1818 18.6136 25.7987 17.6916 25.1168 17.0117C24.4348 16.3319 23.5099 15.95 22.5455 15.95Z" fill="white"/>
</svg>
