<svg width="21" height="26" viewBox="0 0 21 26" fill="none" xmlns="http://www.w3.org/2000/svg">
<path fill-rule="evenodd" clip-rule="evenodd" d="M0 3.9C0 2.86566 0.368749 1.87368 1.02513 1.14228C1.6815 0.410892 2.57174 0 3.5 0H17.5C18.4283 0 19.3185 0.410892 19.9749 1.14228C20.6313 1.87368 21 2.86566 21 3.9V22.1C21 23.1343 20.6313 24.1263 19.9749 24.8577C19.3185 25.5891 18.4283 26 17.5 26H3.5C2.57174 26 1.6815 25.5891 1.02513 24.8577C0.368749 24.1263 0 23.1343 0 22.1V3.9ZM5.83333 3.9V13L8.5085 10.0191C8.72728 9.77539 9.02397 9.63848 9.33333 9.63848C9.64269 9.63848 9.93938 9.77539 10.1582 10.0191L12.8333 13V3.9C12.8333 3.55522 12.7104 3.22456 12.4916 2.98076C12.2728 2.73696 11.9761 2.6 11.6667 2.6H7C6.69058 2.6 6.39383 2.73696 6.17504 2.98076C5.95625 3.22456 5.83333 3.55522 5.83333 3.9Z" fill="white"/>
</svg>
